# xmcd CD database file
#
# Track frame offsets:
#	182
#	15447
#	31155
#	41900
#	55742
#	68280
#	81045
#	92470
#	101745
#	113340
#	123260
#	147840
#	163340
#	180220
#	195447
#	206920
#	216937
#	234635
#
# Disc length: 3276 seconds
#
# Revision: 1
# Processed by: cddbd v1.4PL0 Copyright (c) Steve Scherf et al.
# Submitted via: CDex 1.50
#
DISCID=e40cca12
DTITLE=Sonny Terry and Brownie McGhee - 1958 London Sessions
DYEAR=1958
DGENRE=Blues
TTITLE0=Just A Dream
TTITLE1=I've Been Treated Wrong
TTITLE2=Woman's Lover Blues
TTITLE3=Climbing On Top Of The Hill
TTITLE4=Southern Train
TTITLE5=Black Horse Blues
TTITLE6=Gone But Not Forgotten
TTITLE7=I Love You Baby
TTITLE8=Cornbread, Peas and Black Molasses
TTITLE9=You'd Better Mind
TTITLE10=Brownie Blues
TTITLE11=Change The Lock On My Door
TTITLE12=Auto Mechanic Blues
TTITLE13=Sonny's Blues
TTITLE14=Wholesale and Retail
TTITLE15=Fox Chase
TTITLE16=The Way I Feel
TTITLE17=Hooray (This Woman Is Killing Me)
EXTD=YEAR: 1958
EXTT0=
EXTT1=
EXTT2=
EXTT3=
EXTT4=
EXTT5=
EXTT6=
EXTT7=
EXTT8=
EXTT9=
EXTT10=
EXTT11=
EXTT12=
EXTT13=
EXTT14=
EXTT15=
EXTT16=
EXTT17=
PLAYORDER=
